<?xml version="1.0" ?><svg viewBox="0 0 32 32" xmlns="http://www.w3.org/2000/svg"><defs><style>.a{fill:none;stroke:#000;stroke-linecap:round;stroke-linejoin:round;}</style></defs><line class="a" x1="15.99994" x2="15.99994" y1="3.01118" y2="20.32961"/><path class="a" d="M15.99994,20.32961v4.3296a4.32961,4.32961,0,1,1-4.3296-4.3296Z"/><path class="a" d="M15.99994,20.32961H11.69439a4.35365,4.35365,0,0,1-.04837-8.707l4.35392-.04838"/><path class="a" d="M20.32956,20.32961a4.35345,4.35345,0,1,1,4.32961-4.35338A4.3502,4.3502,0,0,1,20.32956,20.32961Z"/><path class="a" d="M11.56334,3.01118H20.461a4.29353,4.29353,0,0,1,.02367,8.587l-8.89765.04888a4.318,4.318,0,1,1-.02372-8.63588Z"/></svg>