<?xml version="1.0" ?><svg height="256" viewBox="0 0 256 256" width="256" xmlns="http://www.w3.org/2000/svg"><title/><g id="html"><g><path d="M184,168a8.009,8.009,0,0,0,8-8V112a8.009,8.009,0,0,0-8-8H48a8.009,8.009,0,0,0-8,8v48a8.009,8.009,0,0,0,8,8Zm-29.795-47.684h6.359v25.932h15.813v5.307H154.205Zm-37.131-.258h9.518l5.715,21.484,5.65-21.484H147.5v31.5h-5.908V126.762l-6.252,24.793h-6.123l-6.23-24.793v24.793h-5.908Zm-29.267,0h25.029v5.328h-9.324v26.168H97.153V125.387H87.808Zm-29.718,0h6.359v12.4H76.91v-12.4h6.359v31.5H76.91V137.783H64.449v13.771H58.089Z"/><path d="M200,8H64A16.018,16.018,0,0,0,48,24V96h8V24a8.009,8.009,0,0,1,8-8H200a8.009,8.009,0,0,1,8,8V191.029a8.1,8.1,0,0,1-.065.971H172a12.013,12.013,0,0,0-12,12v35.935a8.1,8.1,0,0,1-.971.065H64a8.009,8.009,0,0,1-8-8V176H48v56a16.018,16.018,0,0,0,16,16h95.029a15.893,15.893,0,0,0,11.313-4.687l40.971-40.971A15.893,15.893,0,0,0,216,191.029V24A16.018,16.018,0,0,0,200,8Z"/></g></g></svg>